<svg width="1024" height="580" xmlns="http://www.w3.org/2000/svg">
 <!-- Created with Method Draw - http://github.com/duopixel/Method-Draw/ -->
 <g>
  <title>background</title>
  <rect fill="#fff" id="canvas_background" height="582" width="1026" y="-1" x="-1"/>
  <g display="none" overflow="visible" y="0" x="0" height="100%" width="100%" id="canvasGrid">
   <rect fill="url(#gridpattern)" stroke-width="0" y="0" x="0" height="100%" width="100%"/>
  </g>
 </g>
 <g>
  <title>Layer 1</title>
  <text xml:space="preserve" text-anchor="start" font-family="Helvetica, Arial, sans-serif" font-size="20" id="svg_1" y="111" x="101" stroke-width="0" stroke="#000" fill="#000000">local</text>
  <text xml:space="preserve" text-anchor="start" font-family="Helvetica, Arial, sans-serif" font-size="20" id="svg_2" y="112" x="269.162278" stroke-width="0" stroke="#000" fill="#000000">as dependency</text>
  <line stroke="#000" stroke-linecap="undefined" stroke-linejoin="undefined" id="svg_3" y2="122" x2="404.247867" y1="122" x1="269.162278" fill="none"/>
  <line stroke="#000" stroke-linecap="undefined" stroke-linejoin="undefined" id="svg_4" y2="121" x2="142.085586" y1="121" x1="101" fill="none"/>
  <path stroke="#000" transform="rotate(90 120.16967773437499,218.4899597167969) " id="svg_9" d="m78.17013,160.489835l62.999302,0l20.999801,58l-20.999801,58.00026l-62.999302,0l20.999794,-58.00026l-20.999794,-58z" stroke-opacity="null" stroke-width="null" fill="#bfbf00"/>
  <path stroke="#000" transform="rotate(90 120.16967773437496,323.48999023437506) " id="svg_11" d="m62.170128,465.489817l86.999291,0l28.999814,58.000002l-28.999814,58.00026l-86.999291,0l28.999806,-58.00026l-28.999806,-58.000002z" stroke-opacity="null" stroke-width="null" fill="#bfbf00"/>
  <path stroke="#000" transform="rotate(90 340.169677734375,288.48995971679693) " id="svg_14" d="m298.17013,230.489835l62.999302,0l20.999801,58l-20.999801,58.00026l-62.999302,0l20.999794,-58.00026l-20.999794,-58z" stroke-opacity="null" stroke-width="null" fill="#5fbf00"/>
  <path stroke="#000" stroke-dasharray="5,5" transform="rotate(90 120.16967773437496,358.48999023437506) " id="svg_15" d="m78.17013,300.489835l62.999302,0l20.999801,58l-20.999801,58.00026l-62.999302,0l20.999794,-58.00026l-20.999794,-58z" stroke-opacity="null" stroke-width="null" fill="#ffaaaa"/>
  <path stroke="#000" transform="rotate(90 120.16967773437496,428.48999023437506) " id="svg_16" d="m78.17013,370.489835l62.999302,0l20.999801,58l-20.999801,58.00026l-62.999302,0l20.999794,-58.00026l-20.999794,-58z" stroke-opacity="null" stroke-width="null" fill="#005fbf"/>
  <path stroke="#000" transform="rotate(90 340.16967773437506,218.48999023437503) " id="svg_17" d="m298.17013,160.489835l62.999302,0l20.999801,58l-20.999801,58.00026l-62.999302,0l20.999794,-58.00026l-20.999794,-58z" stroke-opacity="null" stroke-width="null" fill="#00bf00"/>
  <text xml:space="preserve" text-anchor="start" font-family="Helvetica, Arial, sans-serif" font-size="20" id="svg_22" y="228" x="81.984375" stroke-opacity="null" stroke-width="0" stroke="#000" fill="#ffffff">preinstall</text>
  <text xml:space="preserve" text-anchor="start" font-family="Helvetica, Arial, sans-serif" font-size="20" id="svg_26" y="298" x="295.984375" stroke-opacity="null" stroke-width="0" stroke="#000" fill="#ffffff">postinstall</text>
  <text xml:space="preserve" text-anchor="start" font-family="Helvetica, Arial, sans-serif" font-size="20" id="svg_27" y="368" x="75.984375" stroke-opacity="null" stroke-width="0" stroke="#000" fill="#ffffff">prepublish</text>
  <text xml:space="preserve" text-anchor="start" font-family="Helvetica, Arial, sans-serif" font-size="20" id="svg_28" y="438" x="86.984375" stroke-opacity="null" stroke-width="0" stroke="#000" fill="#ffffff">prepare</text>
  <path stroke="#000" transform="rotate(-90 745.169677734375,418.48999023437494) " id="svg_29" d="m703.17013,335.489834l62.999302,0l20.999801,82.999949l-20.999801,83.000322l-62.999302,0l20.999794,-83.000322l-20.999794,-82.999949z" stroke-opacity="null" stroke-width="null" fill="#005fbf"/>
  <path stroke="#000" transform="rotate(-90 745.669677734375,488.48999023437494) " stroke-dasharray="5,5" id="svg_33" d="m703.67013,404.989834l62.999302,0l20.999801,83.499945l-20.999801,83.50032l-62.999302,0l20.999794,-83.50032l-20.999794,-83.499945z" stroke-opacity="null" stroke-width="null" fill="#ffaaaa"/>
  <text xml:space="preserve" text-anchor="start" font-family="Helvetica, Arial, sans-serif" font-size="20" id="svg_34" y="489" x="699.984375" stroke-opacity="null" stroke-width="0" stroke="#000" fill="#ffffff">prepublish</text>
  <text xml:space="preserve" text-anchor="start" font-family="Helvetica, Arial, sans-serif" font-size="20" id="svg_35" y="416" x="708.984375" stroke-opacity="null" stroke-width="0" stroke="#000" fill="#ffffff">prepare</text>
  <path stroke="#000" transform="rotate(-90 745.169677734375,348.4899597167968) " id="svg_36" d="m703.17013,265.489834l62.999302,0l20.999801,82.999943l-20.999801,83.000315l-62.999302,0l20.999794,-83.000315l-20.999794,-82.999943z" stroke-opacity="null" stroke-width="null" fill="#5656ff"/>
  <text xml:space="preserve" text-anchor="start" font-family="Helvetica, Arial, sans-serif" font-size="20" id="svg_38" y="352" x="678.984375" stroke-opacity="null" stroke-width="0" stroke="#000" fill="#ffffff">prepublishOnly</text>
  <path stroke="#000" transform="rotate(-90 745.1696777343751,278.48995971679693) " id="svg_39" d="m703.17013,195.489834l62.999302,0l20.999801,82.999942l-20.999801,83.000315l-62.999302,0l20.999794,-83.000315l-20.999794,-82.999942z" stroke-opacity="null" stroke-width="null" fill="#7f00ff"/>
  <path stroke="#000" transform="rotate(-90 745.1696777343751,208.48995971679685) " id="svg_40" d="m703.17013,125.489834l62.999302,0l20.999801,82.999942l-20.999801,83.000315l-62.999302,0l20.999794,-83.000315l-20.999794,-82.999942z" stroke-opacity="null" stroke-width="null" fill="#aa56ff"/>
  <path stroke="#000" transform="rotate(-90 745.1696777343751,138.48995971679685) " id="svg_41" d="m703.17013,55.489834l62.999302,0l20.999801,82.999942l-20.999801,83.000315l-62.999302,0l20.999794,-83.000315l-20.999794,-82.999942z" stroke-opacity="null" stroke-width="null" fill="#ff56aa"/>
  <text style="cursor: move;" xml:space="preserve" text-anchor="start" font-family="Helvetica, Arial, sans-serif" font-size="20" id="svg_42" y="276" x="708.984375" stroke-opacity="null" stroke-width="0" stroke="#000" fill="#ffffff">prepack</text>
  <text xml:space="preserve" text-anchor="start" font-family="Helvetica, Arial, sans-serif" font-size="20" id="svg_43" y="209" x="702.984375" stroke-opacity="null" stroke-width="0" stroke="#000" fill="#ffffff">postpack</text>
  <text xml:space="preserve" text-anchor="start" font-family="Helvetica, Arial, sans-serif" font-size="20" id="svg_44" y="141" x="692.984375" stroke-opacity="null" stroke-width="0" stroke="#000" fill="#ffffff">postpublish</text>
  <text font-weight="bold" xml:space="preserve" text-anchor="start" font-family="Helvetica, Arial, sans-serif" font-size="20" id="svg_46" y="47.5" x="172" fill-opacity="null" stroke-opacity="null" stroke-width="0" stroke="#000" fill="#000000">npm install</text>
  <text font-weight="bold" xml:space="preserve" text-anchor="start" font-family="Helvetica, Arial, sans-serif" font-size="20" id="svg_47" y="49.5" x="685" fill-opacity="null" stroke-opacity="null" stroke-width="0" stroke="#000" fill="#000000">npm publish</text>
  <path stroke="#000" transform="rotate(90 340.16967773437506,218.4899597167969) " id="svg_48" d="m298.17013,160.489835l62.999302,0l20.999801,58l-20.999801,58.00026l-62.999302,0l20.999794,-58.00026l-20.999794,-58z" stroke-opacity="null" stroke-width="null" fill="#bfbf00"/>
  <text xml:space="preserve" text-anchor="start" font-family="Helvetica, Arial, sans-serif" font-size="20" id="svg_49" y="228" x="301.984375" stroke-opacity="null" stroke-width="0" stroke="#000" fill="#ffffff">preinstall</text>
  <path stroke="#000" transform="rotate(90 120.16967773437496,288.48995971679693) " id="svg_52" d="m78.17013,230.489835l62.999302,0l20.999801,58l-20.999801,58.00026l-62.999302,0l20.999794,-58.00026l-20.999794,-58z" stroke-opacity="null" stroke-width="null" fill="#5fbf00"/>
  <text xml:space="preserve" text-anchor="start" font-family="Helvetica, Arial, sans-serif" font-size="20" id="svg_53" y="298" x="75.984375" stroke-opacity="null" stroke-width="0" stroke="#000" fill="#ffffff">postinstall</text>
  <line stroke="#999999" stroke-linecap="null" stroke-linejoin="null" id="svg_54" y2="545.855138" x2="487" y1="33.5" x1="487" stroke-width="NaN" fill="none"/>
 </g>
</svg>